<?xml version="1.0" encoding="utf-8"?>
<!-- Generator: Adobe Illustrator 16.0.0, SVG Export Plug-In . SVG Version: 6.00 Build 0)  -->
<!DOCTYPE svg PUBLIC "-//W3C//DTD SVG 1.1//EN" "http://www.w3.org/Graphics/SVG/1.1/DTD/svg11.dtd">
<svg version="1.1" id="Layer_1" xmlns="http://www.w3.org/2000/svg" xmlns:xlink="http://www.w3.org/1999/xlink" x="0px" y="0px"
	 width="999px" height="258.887px" viewBox="0 0 999 258.887" enable-background="new 0 0 999 258.887" xml:space="preserve">
<polygon display="none" fill="#999999" points="260,360.104 230,377.148 170,343.512 140,360.104 140,512.955 155,521.393 
	170,512.955 170,393.849 184.5,385.713 200,393.885 200,461.572 215,470.008 230,461.572 230,410.721 260,393.849 260,513.723 
	275,522.158 290,513.723 290,376.977 "/>
<polygon display="none" fill="#FF7BAC" points="274,338.104 234,365.148 170,327.512 140,344.104 140,512.955 155,521.393 
	170,512.955 170,378.849 184.5,369.712 204,381.885 204,446.572 219,455.008 234,446.572 234,398.721 274,372.849 274,513.723 
	289,522.158 304,513.723 304,354.977 "/>
<g>
	<polygon fill="#34495E" points="138.915,46.756 109.587,63.364 51.214,29.613 21.779,46.731 21.904,211.291 36.33,220.181 
		51,211.291 51,79.786 65.5,71.348 80,79.781 80,162.195 94.803,170.415 109.106,161.79 109.124,96.854 138,79.638 138,211.063 
		153.095,219.815 168,211.063 168,64.171 	"/>
	<path fill="#34495E" d="M634.951,187.588c-7.177,0-13.512,4.309-17.302,9.309H562v-146h-27v169h82.317
		c3.745,6,10.24,9.545,17.634,9.545c11.604,0,21.01-9.323,21.01-20.928C655.961,196.911,646.557,187.588,634.951,187.588z"/>
	<path fill="#34495E" d="M951.788,132.893c11.4-4.513,22.8-16.986,22.8-35.274c0-28.497-19.713-46.722-51.062-46.722H857v96h24v-73
		h40.389c16.387,0,27.551,7.826,27.551,23.501c0,15.674-11.164,23.499-27.551,23.499H905v26h18.764
		c17.812,0,27.787,9.919,27.787,24.881c0,14.963-9.976,25.119-27.787,25.119H887.6c-3.721-5-10.053-9.151-17.242-9.151
		c-11.457,0-20.744,9.314-20.744,20.771s9.287,20.622,20.744,20.622c7.148,0,13.453-3.242,17.184-9.242h38.599
		c29.924,0,51.061-16.665,51.061-47.776C977.198,150.744,964.85,138.118,951.788,132.893z"/>
	<path fill="#34495E" d="M807.186,189.375L756.939,50.896h-20.547l-61.641,169h27.159l11.574-33h48.918l-7.336-22h-34.025
		l26.214-74.875l36.702,108.167c-1.848,3.091-2.911,6.659-2.911,10.522c0,11.391,9.235,20.604,20.629,20.604
		c11.391,0,20.627-8.953,20.627-20.347C822.303,199.488,815.9,191.787,807.186,189.375z"/>
	<polygon fill="#34495E" points="411.062,35.625 368,59.391 368,145.493 383,153.714 398,145.493 398,75.283 410.909,67.984 
		469,101.238 469,168.434 426.322,192.12 383.031,167.459 368,175.68 368,192.12 426.165,225.003 497,184.874 497,84.799 	"/>
	<polygon fill="#34495E" points="253.857,33.342 210,57.525 210,211.29 224.5,219.512 239,211.29 239,174.084 283,149.104 
		283,132.661 268.309,124.44 239,140.558 239,73.966 252.934,65.985 295,90.408 295,211.187 310,219.406 325,211.187 325,74.568 	
		"/>
</g>
</svg>
